<mxfile host="app.diagrams.net" agent="Mozilla/5.0 (Windows NT 10.0; Win64; x64) AppleWebKit/537.36 (KHTML, like Gecko) Chrome/128.0.0.0 Safari/537.36" version="24.7.16">
  <diagram name="Seite-1" id="VowD8nEoyE8IBa-5U-1N">
    <mxGraphModel dx="1434" dy="772" grid="1" gridSize="10" guides="1" tooltips="1" connect="1" arrows="1" fold="1" page="1" pageScale="1" pageWidth="827" pageHeight="1169" math="0" shadow="0">
      <root>
        <mxCell id="0" />
        <mxCell id="1" parent="0" />
        <mxCell id="gRkCcUe8Q8Bvcg7nnEys-2" value="CS Probe CDLV" style="whiteSpace=wrap;html=1;aspect=fixed;" parent="1" vertex="1">
          <mxGeometry x="125" y="40" width="100" height="100" as="geometry" />
        </mxCell>
        <mxCell id="gRkCcUe8Q8Bvcg7nnEys-4" value="SAMBC01" style="whiteSpace=wrap;html=1;aspect=fixed;" parent="1" vertex="1">
          <mxGeometry x="170" y="813" width="80" height="80" as="geometry" />
        </mxCell>
        <mxCell id="gRkCcUe8Q8Bvcg7nnEys-35" value="" style="edgeStyle=orthogonalEdgeStyle;rounded=0;orthogonalLoop=1;jettySize=auto;html=1;" parent="1" source="gRkCcUe8Q8Bvcg7nnEys-7" target="gRkCcUe8Q8Bvcg7nnEys-10" edge="1">
          <mxGeometry relative="1" as="geometry" />
        </mxCell>
        <mxCell id="gRkCcUe8Q8Bvcg7nnEys-37" style="edgeStyle=orthogonalEdgeStyle;rounded=0;orthogonalLoop=1;jettySize=auto;html=1;exitX=0.25;exitY=1;exitDx=0;exitDy=0;" parent="1" source="gRkCcUe8Q8Bvcg7nnEys-7" edge="1">
          <mxGeometry relative="1" as="geometry">
            <mxPoint x="53" y="553" as="targetPoint" />
          </mxGeometry>
        </mxCell>
        <mxCell id="gRkCcUe8Q8Bvcg7nnEys-40" style="edgeStyle=orthogonalEdgeStyle;rounded=0;orthogonalLoop=1;jettySize=auto;html=1;exitX=0.75;exitY=1;exitDx=0;exitDy=0;entryX=0.5;entryY=0;entryDx=0;entryDy=0;" parent="1" source="gRkCcUe8Q8Bvcg7nnEys-7" target="gRkCcUe8Q8Bvcg7nnEys-4" edge="1">
          <mxGeometry relative="1" as="geometry">
            <Array as="points">
              <mxPoint x="130" y="553" />
              <mxPoint x="130" y="623" />
              <mxPoint x="190" y="623" />
              <mxPoint x="190" y="813" />
            </Array>
          </mxGeometry>
        </mxCell>
        <mxCell id="gRkCcUe8Q8Bvcg7nnEys-44" value="1A" style="edgeLabel;html=1;align=center;verticalAlign=middle;resizable=0;points=[];" parent="gRkCcUe8Q8Bvcg7nnEys-40" vertex="1" connectable="0">
          <mxGeometry x="-0.4378" y="-1" relative="1" as="geometry">
            <mxPoint x="1" as="offset" />
          </mxGeometry>
        </mxCell>
        <mxCell id="gRkCcUe8Q8Bvcg7nnEys-7" value="Tap_03" style="rounded=0;whiteSpace=wrap;html=1;" parent="1" vertex="1">
          <mxGeometry x="15" y="533" width="130" height="20" as="geometry" />
        </mxCell>
        <mxCell id="gRkCcUe8Q8Bvcg7nnEys-42" style="edgeStyle=orthogonalEdgeStyle;rounded=0;orthogonalLoop=1;jettySize=auto;html=1;exitX=0.25;exitY=1;exitDx=0;exitDy=0;entryX=0.6;entryY=0.013;entryDx=0;entryDy=0;entryPerimeter=0;" parent="1" source="gRkCcUe8Q8Bvcg7nnEys-8" target="gRkCcUe8Q8Bvcg7nnEys-4" edge="1">
          <mxGeometry relative="1" as="geometry">
            <mxPoint x="220" y="803" as="targetPoint" />
            <Array as="points">
              <mxPoint x="290" y="553" />
              <mxPoint x="290" y="623" />
              <mxPoint x="218" y="623" />
            </Array>
          </mxGeometry>
        </mxCell>
        <mxCell id="gRkCcUe8Q8Bvcg7nnEys-45" value="1A" style="edgeLabel;html=1;align=center;verticalAlign=middle;resizable=0;points=[];" parent="gRkCcUe8Q8Bvcg7nnEys-42" vertex="1" connectable="0">
          <mxGeometry x="-0.2799" y="3" relative="1" as="geometry">
            <mxPoint as="offset" />
          </mxGeometry>
        </mxCell>
        <mxCell id="gRkCcUe8Q8Bvcg7nnEys-8" value="Tap_04" style="rounded=0;whiteSpace=wrap;html=1;" parent="1" vertex="1">
          <mxGeometry x="273" y="533" width="130" height="20" as="geometry" />
        </mxCell>
        <mxCell id="gRkCcUe8Q8Bvcg7nnEys-34" value="" style="edgeStyle=orthogonalEdgeStyle;rounded=0;orthogonalLoop=1;jettySize=auto;html=1;" parent="1" source="gRkCcUe8Q8Bvcg7nnEys-10" target="gRkCcUe8Q8Bvcg7nnEys-7" edge="1">
          <mxGeometry relative="1" as="geometry" />
        </mxCell>
        <mxCell id="gRkCcUe8Q8Bvcg7nnEys-10" value="Switch S5328C_43" style="rounded=0;whiteSpace=wrap;html=1;" parent="1" vertex="1">
          <mxGeometry x="20" y="410" width="120" height="60" as="geometry" />
        </mxCell>
        <mxCell id="gRkCcUe8Q8Bvcg7nnEys-11" value="Switch S5328C_44" style="rounded=0;whiteSpace=wrap;html=1;" parent="1" vertex="1">
          <mxGeometry x="263" y="410" width="120" height="60" as="geometry" />
        </mxCell>
        <mxCell id="gRkCcUe8Q8Bvcg7nnEys-12" value="" style="endArrow=none;html=1;rounded=0;entryX=0.5;entryY=1;entryDx=0;entryDy=0;" parent="1" target="gRkCcUe8Q8Bvcg7nnEys-10" edge="1">
          <mxGeometry width="50" height="50" relative="1" as="geometry">
            <mxPoint x="80" y="500" as="sourcePoint" />
            <mxPoint x="130" y="450" as="targetPoint" />
          </mxGeometry>
        </mxCell>
        <mxCell id="gRkCcUe8Q8Bvcg7nnEys-36" value="5A" style="edgeLabel;html=1;align=center;verticalAlign=middle;resizable=0;points=[];" parent="gRkCcUe8Q8Bvcg7nnEys-12" vertex="1" connectable="0">
          <mxGeometry x="0.1333" relative="1" as="geometry">
            <mxPoint y="40" as="offset" />
          </mxGeometry>
        </mxCell>
        <mxCell id="gRkCcUe8Q8Bvcg7nnEys-60" value="GigabitEthernet0/0/5" style="edgeLabel;html=1;align=center;verticalAlign=middle;resizable=0;points=[];" parent="gRkCcUe8Q8Bvcg7nnEys-12" vertex="1" connectable="0">
          <mxGeometry x="-0.1448" relative="1" as="geometry">
            <mxPoint as="offset" />
          </mxGeometry>
        </mxCell>
        <mxCell id="gRkCcUe8Q8Bvcg7nnEys-13" value="5A" style="endArrow=none;html=1;rounded=0;entryX=0.5;entryY=1;entryDx=0;entryDy=0;exitX=0.385;exitY=0;exitDx=0;exitDy=0;exitPerimeter=0;" parent="1" source="gRkCcUe8Q8Bvcg7nnEys-8" target="gRkCcUe8Q8Bvcg7nnEys-11" edge="1">
          <mxGeometry x="-0.4964" y="3" width="50" height="50" relative="1" as="geometry">
            <mxPoint x="183" y="510" as="sourcePoint" />
            <mxPoint x="183" y="480" as="targetPoint" />
            <mxPoint as="offset" />
          </mxGeometry>
        </mxCell>
        <mxCell id="gRkCcUe8Q8Bvcg7nnEys-61" value="GigabitEthernet0/0/6" style="edgeLabel;html=1;align=center;verticalAlign=middle;resizable=0;points=[];" parent="gRkCcUe8Q8Bvcg7nnEys-13" vertex="1" connectable="0">
          <mxGeometry x="0.5643" y="1" relative="1" as="geometry">
            <mxPoint as="offset" />
          </mxGeometry>
        </mxCell>
        <mxCell id="gRkCcUe8Q8Bvcg7nnEys-14" value="Switch S5328C_29" style="rounded=0;whiteSpace=wrap;html=1;" parent="1" vertex="1">
          <mxGeometry x="20" y="290" width="120" height="60" as="geometry" />
        </mxCell>
        <mxCell id="gRkCcUe8Q8Bvcg7nnEys-15" value="Switch S5328C_30" style="rounded=0;whiteSpace=wrap;html=1;" parent="1" vertex="1">
          <mxGeometry x="263" y="290" width="120" height="60" as="geometry" />
        </mxCell>
        <mxCell id="gRkCcUe8Q8Bvcg7nnEys-16" value="" style="endArrow=none;html=1;rounded=0;entryX=0.25;entryY=1;entryDx=0;entryDy=0;" parent="1" target="gRkCcUe8Q8Bvcg7nnEys-2" edge="1">
          <mxGeometry width="50" height="50" relative="1" as="geometry">
            <mxPoint x="70" y="290" as="sourcePoint" />
            <mxPoint x="117.5" y="210" as="targetPoint" />
          </mxGeometry>
        </mxCell>
        <mxCell id="gRkCcUe8Q8Bvcg7nnEys-55" value="GigabitEthernet0/0/24" style="edgeLabel;html=1;align=center;verticalAlign=middle;resizable=0;points=[];" parent="gRkCcUe8Q8Bvcg7nnEys-16" vertex="1" connectable="0">
          <mxGeometry x="0.4856" y="-1" relative="1" as="geometry">
            <mxPoint x="-45" y="91" as="offset" />
          </mxGeometry>
        </mxCell>
        <mxCell id="gRkCcUe8Q8Bvcg7nnEys-57" value="ETH4" style="edgeLabel;html=1;align=center;verticalAlign=middle;resizable=0;points=[];" parent="gRkCcUe8Q8Bvcg7nnEys-16" vertex="1" connectable="0">
          <mxGeometry x="0.6844" y="-1" relative="1" as="geometry">
            <mxPoint x="-8" as="offset" />
          </mxGeometry>
        </mxCell>
        <mxCell id="gRkCcUe8Q8Bvcg7nnEys-17" value="" style="endArrow=none;html=1;rounded=0;exitX=0.5;exitY=0;exitDx=0;exitDy=0;entryX=0.75;entryY=1;entryDx=0;entryDy=0;" parent="1" source="gRkCcUe8Q8Bvcg7nnEys-15" target="gRkCcUe8Q8Bvcg7nnEys-2" edge="1">
          <mxGeometry width="50" height="50" relative="1" as="geometry">
            <mxPoint x="213.5" y="290" as="sourcePoint" />
            <mxPoint x="263" y="210" as="targetPoint" />
          </mxGeometry>
        </mxCell>
        <mxCell id="gRkCcUe8Q8Bvcg7nnEys-53" value="GigabitEthernet0/0/24" style="edgeLabel;html=1;align=center;verticalAlign=middle;resizable=0;points=[];" parent="gRkCcUe8Q8Bvcg7nnEys-17" vertex="1" connectable="0">
          <mxGeometry x="0.6313" y="2" relative="1" as="geometry">
            <mxPoint x="79" y="91" as="offset" />
          </mxGeometry>
        </mxCell>
        <mxCell id="gRkCcUe8Q8Bvcg7nnEys-58" value="ETH8" style="edgeLabel;html=1;align=center;verticalAlign=middle;resizable=0;points=[];" parent="gRkCcUe8Q8Bvcg7nnEys-17" vertex="1" connectable="0">
          <mxGeometry x="0.7098" y="-3" relative="1" as="geometry">
            <mxPoint y="10" as="offset" />
          </mxGeometry>
        </mxCell>
        <mxCell id="gRkCcUe8Q8Bvcg7nnEys-18" value="XG0/1/1/1" style="endArrow=none;html=1;rounded=0;entryX=0.5;entryY=1;entryDx=0;entryDy=0;" parent="1" target="gRkCcUe8Q8Bvcg7nnEys-14" edge="1">
          <mxGeometry x="-0.6667" width="50" height="50" relative="1" as="geometry">
            <mxPoint x="80" y="410" as="sourcePoint" />
            <mxPoint x="130" y="360" as="targetPoint" />
            <mxPoint as="offset" />
          </mxGeometry>
        </mxCell>
        <mxCell id="gRkCcUe8Q8Bvcg7nnEys-50" value="XG0/1/1/1" style="edgeLabel;html=1;align=center;verticalAlign=middle;resizable=0;points=[];" parent="gRkCcUe8Q8Bvcg7nnEys-18" vertex="1" connectable="0">
          <mxGeometry x="0.6" y="-2" relative="1" as="geometry">
            <mxPoint as="offset" />
          </mxGeometry>
        </mxCell>
        <mxCell id="gRkCcUe8Q8Bvcg7nnEys-19" value="" style="endArrow=none;html=1;rounded=0;entryX=0.5;entryY=1;entryDx=0;entryDy=0;" parent="1" target="gRkCcUe8Q8Bvcg7nnEys-15" edge="1">
          <mxGeometry width="50" height="50" relative="1" as="geometry">
            <mxPoint x="318" y="410" as="sourcePoint" />
            <mxPoint x="313" y="360" as="targetPoint" />
          </mxGeometry>
        </mxCell>
        <mxCell id="gRkCcUe8Q8Bvcg7nnEys-51" value="XG0/1/1/1" style="edgeLabel;html=1;align=center;verticalAlign=middle;resizable=0;points=[];" parent="gRkCcUe8Q8Bvcg7nnEys-19" vertex="1" connectable="0">
          <mxGeometry x="0.6" relative="1" as="geometry">
            <mxPoint as="offset" />
          </mxGeometry>
        </mxCell>
        <mxCell id="gRkCcUe8Q8Bvcg7nnEys-20" value="PE Core 1&lt;div&gt;Gi100/0/0/0&lt;/div&gt;&lt;div&gt;20MB&lt;/div&gt;" style="whiteSpace=wrap;html=1;aspect=fixed;" parent="1" vertex="1">
          <mxGeometry x="45" y="663" width="80" height="80" as="geometry" />
        </mxCell>
        <mxCell id="gRkCcUe8Q8Bvcg7nnEys-21" value="PE Core&amp;nbsp; 0&lt;div&gt;Gi100/0/0/0&lt;br&gt;&lt;/div&gt;&lt;div&gt;40MB&lt;/div&gt;" style="whiteSpace=wrap;html=1;aspect=fixed;" parent="1" vertex="1">
          <mxGeometry x="310" y="673" width="80" height="80" as="geometry" />
        </mxCell>
        <mxCell id="gRkCcUe8Q8Bvcg7nnEys-26" value="&#xa;&lt;span style=&quot;color: rgb(0, 0, 0); font-family: Helvetica; font-size: 12px; font-style: normal; font-variant-ligatures: normal; font-variant-caps: normal; font-weight: 400; letter-spacing: normal; orphans: 2; text-align: center; text-indent: 0px; text-transform: none; widows: 2; word-spacing: 0px; -webkit-text-stroke-width: 0px; white-space: normal; background-color: rgb(251, 251, 251); text-decoration-thickness: initial; text-decoration-style: initial; text-decoration-color: initial; display: inline !important; float: none;&quot;&gt;Gi100/0/0/0&lt;/span&gt;&#xa;&#xa;" style="endArrow=none;html=1;rounded=0;entryX=0.5;entryY=1;entryDx=0;entryDy=0;" parent="1" target="gRkCcUe8Q8Bvcg7nnEys-7" edge="1">
          <mxGeometry width="50" height="50" relative="1" as="geometry">
            <mxPoint x="80" y="663" as="sourcePoint" />
            <mxPoint x="130" y="613" as="targetPoint" />
          </mxGeometry>
        </mxCell>
        <mxCell id="gRkCcUe8Q8Bvcg7nnEys-28" value="1B" style="edgeLabel;html=1;align=center;verticalAlign=middle;resizable=0;points=[];" parent="gRkCcUe8Q8Bvcg7nnEys-26" vertex="1" connectable="0">
          <mxGeometry x="0.5993" y="1" relative="1" as="geometry">
            <mxPoint as="offset" />
          </mxGeometry>
        </mxCell>
        <mxCell id="gRkCcUe8Q8Bvcg7nnEys-27" value="&#xa;&lt;span style=&quot;color: rgb(0, 0, 0); font-family: Helvetica; font-size: 12px; font-style: normal; font-variant-ligatures: normal; font-variant-caps: normal; font-weight: 400; letter-spacing: normal; orphans: 2; text-align: center; text-indent: 0px; text-transform: none; widows: 2; word-spacing: 0px; -webkit-text-stroke-width: 0px; white-space: normal; background-color: rgb(251, 251, 251); text-decoration-thickness: initial; text-decoration-style: initial; text-decoration-color: initial; display: inline !important; float: none;&quot;&gt;Gi100/0/0/0&lt;/span&gt;&#xa;&#xa;" style="endArrow=none;html=1;rounded=0;entryX=0.5;entryY=1;entryDx=0;entryDy=0;exitX=0.4;exitY=-0.037;exitDx=0;exitDy=0;exitPerimeter=0;" parent="1" source="gRkCcUe8Q8Bvcg7nnEys-21" target="gRkCcUe8Q8Bvcg7nnEys-8" edge="1">
          <mxGeometry width="50" height="50" relative="1" as="geometry">
            <mxPoint x="335.5" y="663" as="sourcePoint" />
            <mxPoint x="338" y="563" as="targetPoint" />
          </mxGeometry>
        </mxCell>
        <mxCell id="gRkCcUe8Q8Bvcg7nnEys-30" value="1B" style="edgeLabel;html=1;align=center;verticalAlign=middle;resizable=0;points=[];" parent="gRkCcUe8Q8Bvcg7nnEys-27" vertex="1" connectable="0">
          <mxGeometry x="0.6665" y="1" relative="1" as="geometry">
            <mxPoint as="offset" />
          </mxGeometry>
        </mxCell>
        <mxCell id="gRkCcUe8Q8Bvcg7nnEys-48" value="" style="endArrow=none;dashed=1;html=1;dashPattern=1 3;strokeWidth=2;rounded=0;" parent="1" edge="1">
          <mxGeometry width="50" height="50" relative="1" as="geometry">
            <mxPoint x="20" y="380" as="sourcePoint" />
            <mxPoint x="410" y="380" as="targetPoint" />
          </mxGeometry>
        </mxCell>
        <mxCell id="gRkCcUe8Q8Bvcg7nnEys-49" value="XG0/1/1/1" style="edgeLabel;html=1;align=center;verticalAlign=middle;resizable=0;points=[];" parent="gRkCcUe8Q8Bvcg7nnEys-48" vertex="1" connectable="0">
          <mxGeometry x="0.5792" y="-5" relative="1" as="geometry">
            <mxPoint x="-5" y="15" as="offset" />
          </mxGeometry>
        </mxCell>
        <mxCell id="gRkCcUe8Q8Bvcg7nnEys-62" value="Cambia la SALA" style="edgeLabel;html=1;align=center;verticalAlign=middle;resizable=0;points=[];" parent="gRkCcUe8Q8Bvcg7nnEys-48" vertex="1" connectable="0">
          <mxGeometry x="0.9572" y="1" relative="1" as="geometry">
            <mxPoint as="offset" />
          </mxGeometry>
        </mxCell>
      </root>
    </mxGraphModel>
  </diagram>
</mxfile>
